<svg width="27" height="24" viewBox="0 0 24 24" fill="none" xmlns="http://www.w3.org/2000/svg">
  <path d="M12 1.5C6.75 1.5 2 6.253 2 11.5C2 16.747 6.75 21.5 12 21.5C17.25 21.5 22 16.747 22 11.5C22 6.253 17.25 1.5 12 1.5ZM12 18.75C8.25 18.75 5 15.5 5 11.5C5 7.5 8.25 4.25 12 4.25C15.75 4.25 19 7.5 19 11.5C19 15.5 15.75 18.75 12 18.75ZM13.35 15.6L13.35 8.4L16.15 8.4L16.15 15.6L13.35 15.6ZM12 7.5C11.1 7.5 10.35 8.25 10.35 9.15C10.35 10.05 11.1 10.8 12 10.8C12.9 10.8 13.65 10.05 13.65 9.15C13.65 8.25 12.9 7.5 12 7.5Z" fill="#00D8FF"/>
</svg>
